<svg aria-hidden="true" style="position: absolute; width: 0; height: 0; overflow: hidden;" version="1.1" xmlns="http://www.w3.org/2000/svg" xmlns:xlink="http://www.w3.org/1999/xlink">
<defs>
<symbol id="icon-logo" viewBox="0 0 32 32">
<path d="M29.082 0.314h-4.009c-1.237 0-2.24 0.983-2.24 2.195v3.929c0 1.212 1.003 2.195 2.24 2.195h4.009c1.237 0 2.24-0.983 2.24-2.195v-3.929c0-1.212-1.003-2.195-2.24-2.195z"></path>
<path d="M6.73 23.040h-4.318c-1.332 0-2.412 0.983-2.412 2.195v3.929c0 1.213 1.080 2.195 2.412 2.195h4.318c1.332 0 2.412-0.983 2.412-2.195v-3.929c0-1.212-1.080-2.195-2.412-2.195z"></path>
<path d="M6.25 11.582h-4.009c-1.237 0-2.24 0.983-2.24 2.195v3.929c0 1.212 1.003 2.195 2.24 2.195h4.009c1.237 0 2.24-0.983 2.24-2.195v-3.929c0-1.212-1.003-2.195-2.24-2.195z"></path>
<path d="M17.766 22.978h-4.009c-1.237 0-2.24 0.983-2.24 2.195l-0 3.929c0 1.212 1.003 2.195 2.241 2.195h4.009c1.237 0 2.24-0.983 2.24-2.195v-3.929c0-1.212-1.003-2.195-2.24-2.195z"></path>
<path d="M6.25 0.086h-4.009c-1.237 0-2.24 0.983-2.24 2.195v3.929c0 1.212 1.003 2.195 2.24 2.195h4.009c1.237 0 2.24-0.983 2.24-2.195v-3.929c0-1.212-1.003-2.195-2.24-2.195z"></path>
<path d="M18.076 11.697h-4.009c-1.237 0-2.24 0.983-2.24 2.195v3.929c0 1.212 1.003 2.195 2.24 2.195h4.009c1.237 0 2.24-0.983 2.24-2.195v-3.929c0-1.212-1.003-2.195-2.24-2.195z"></path>
<path d="M29.333 22.978h-4.010c-1.237 0-2.24 0.983-2.24 2.195v3.929c0 1.212 1.003 2.195 2.24 2.195h4.009c1.237 0 2.24-0.983 2.24-2.195v-3.929c0-1.212-1.003-2.195-2.24-2.195z"></path>
<path d="M17.591 0.224h-4.009c-1.237 0-2.24 0.983-2.24 2.195v3.929c0 1.212 1.003 2.195 2.24 2.195h4.009c1.237 0 2.24-0.984 2.24-2.196v-3.929c0-1.212-1.003-2.195-2.24-2.195z"></path>
<path d="M29.044 11.926h-4.010c-1.237 0-2.24 0.983-2.24 2.195v3.929c0 1.212 1.003 2.195 2.24 2.195h4.009c1.237 0 2.24-0.983 2.24-2.195v-3.929c0-1.212-1.003-2.195-2.24-2.195z"></path>
</symbol>
<symbol id="icon-ellipse" viewBox="0 0 42 32">
<path d="M45.205 22.602c0 12.483-10.119 22.602-22.602 22.602s-22.602-10.119-22.602-22.602c0-12.483 10.119-22.602 22.602-22.602s22.602 10.119 22.602 22.602z"></path>
</symbol>
<symbol id="icon-arrow" viewBox="0 0 28 32">
<path d="M24.137 3.149c-0.145-1.029-1.096-1.747-2.126-1.602l-16.776 2.358c-1.029 0.145-1.747 1.097-1.602 2.126s1.097 1.747 2.126 1.602l14.912-2.096 2.096 14.912c0.145 1.029 1.096 1.747 2.126 1.602s1.747-1.097 1.602-2.126l-2.358-16.776zM3.386 31.604l20.391-27.060-3.007-2.266-20.391 27.060 3.007 2.266z"></path>
</symbol>
<symbol id="icon-check" viewBox="0 0 32 32">
<path d="M8 13.333l-2.667 2.667 8 8 13.333-13.333-2.667-2.667-10.667 10.667-5.333-5.333z"></path>
</symbol>
<symbol id="icon-users" viewBox="0 0 32 32">
<path d="M19.041 22.529l-0.548 2.044-14.306-3.833 0.548-2.044c0 0 1.095-4.087 8.248-2.171s6.058 6.004 6.058 6.004zM18.066 11.863c0.189-0.707 0.165-1.455-0.070-2.149s-0.671-1.302-1.252-1.747c-0.581-0.446-1.281-0.709-2.012-0.757s-1.459 0.122-2.093 0.488c-0.634 0.366-1.146 0.912-1.469 1.569s-0.446 1.395-0.35 2.121c0.096 0.726 0.404 1.407 0.887 1.958s1.118 0.946 1.825 1.135c0.949 0.254 1.959 0.121 2.81-0.37s1.471-1.3 1.725-2.248zM20.075 18.425c0.498 0.654 0.846 1.41 1.021 2.214s0.171 1.636-0.011 2.438l-0.548 2.044 4.087 1.095 0.548-2.044c0 0 0.994-3.709-5.097-5.747zM21.579 8.971c-0.702-0.192-1.447-0.166-2.134 0.074 0.388 1.034 0.443 2.163 0.158 3.229s-0.898 2.017-1.751 2.718c0.475 0.552 1.106 0.947 1.811 1.131 0.948 0.254 1.959 0.121 2.81-0.37s1.471-1.3 1.725-2.248c0.254-0.949 0.121-1.959-0.37-2.81s-1.3-1.471-2.248-1.725z"></path>
</symbol>
<symbol id="icon-question-mark" viewBox="0 0 19 32">
<path d="M4.706 10c0-2.206 1.688-4 3.765-4h1.882c2.076 0 3.765 1.794 3.765 4v0.225c0 1.363-0.653 2.631-1.729 3.362l-2.482 1.694c-0.729 0.498-1.328 1.182-1.744 1.99s-0.633 1.714-0.633 2.635v0.094c0 1.106 0.841 2 1.882 2s1.882-0.894 1.882-2v-0.088c0-0.512 0.247-0.987 0.647-1.262l2.482-1.694c2.153-1.475 3.459-4.006 3.459-6.731v-0.225c0-4.419-3.371-8-7.529-8h-1.882c-4.159 0-7.529 3.581-7.529 8 0 1.106 0.841 2 1.882 2s1.882-0.894 1.882-2zM9.412 30c0.624 0 1.223-0.263 1.664-0.732s0.689-1.105 0.689-1.768c0-0.663-0.248-1.299-0.689-1.768s-1.040-0.732-1.664-0.732-1.223 0.263-1.664 0.732c-0.441 0.469-0.689 1.105-0.689 1.768s0.248 1.299 0.689 1.768 1.040 0.732 1.664 0.732z"></path>
</symbol>
<symbol id="icon-user" viewBox="0 0 32 32">
<path d="M16 0c2.122 0 4.157 0.843 5.657 2.343s2.343 3.535 2.343 5.657-0.843 4.157-2.343 5.657c-1.5 1.5-3.535 2.343-5.657 2.343s-4.157-0.843-5.657-2.343c-1.5-1.5-2.343-3.535-2.343-5.657s0.843-4.157 2.343-5.657c1.5-1.5 3.535-2.343 5.657-2.343zM16 20c8.84 0 16 3.58 16 8v4h-32v-4c0-4.42 7.16-8 16-8z"></path>
</symbol>
<symbol id="icon-r" viewBox="0 0 26 32">
<path d="M1.276 32v-31.030h11.061c2.404 0 4.399 0.414 5.985 1.242 1.596 0.828 2.788 1.975 3.576 3.439 0.788 1.455 1.182 3.136 1.182 5.045 0 1.899-0.399 3.571-1.197 5.015-0.788 1.434-1.98 2.55-3.576 3.348-1.586 0.798-3.581 1.197-5.985 1.197h-8.379v-4.030h7.955c1.515 0 2.747-0.217 3.697-0.652 0.96-0.434 1.662-1.066 2.106-1.894s0.667-1.823 0.667-2.985c0-1.172-0.227-2.187-0.682-3.045-0.444-0.859-1.146-1.515-2.106-1.97-0.95-0.465-2.197-0.697-3.742-0.697h-5.879v27.015h-4.682zM16.594 18l7.667 14h-5.333l-7.515-14h5.182z"></path>
</symbol>
<symbol id="icon-eye-off" viewBox="0 0 32 32">
<path stroke-linejoin="round" stroke-linecap="round" stroke-miterlimit="4" stroke-width="3.2" d="M23.921 23.92c-2.279 1.737-5.055 2.7-7.92 2.747-9.333 0-14.667-10.667-14.667-10.667 1.659-3.091 3.959-5.791 6.747-7.92M13.201 5.653c0.918-0.215 1.857-0.322 2.8-0.32 9.333 0 14.667 10.667 14.667 10.667-0.809 1.514-1.775 2.94-2.88 4.253M18.828 18.827c-0.366 0.393-0.808 0.708-1.298 0.927s-1.020 0.336-1.557 0.346c-0.537 0.009-1.071-0.089-1.569-0.291s-0.95-0.501-1.33-0.88c-0.38-0.38-0.679-0.832-0.88-1.33s-0.3-1.032-0.29-1.569c0.009-0.537 0.127-1.067 0.346-1.558s0.534-0.932 0.927-1.298"></path>
<path stroke-linejoin="round" stroke-linecap="round" stroke-miterlimit="4" stroke-width="3.2" d="M1.334 1.333l29.333 29.333"></path>
</symbol>
<symbol id="icon-eye" viewBox="0 0 32 32">
<path stroke-linejoin="round" stroke-linecap="round" stroke-miterlimit="4" stroke-width="3.2" d="M1.334 16c0 0 5.333-10.667 14.667-10.667s14.667 10.667 14.667 10.667-5.333 10.667-14.667 10.667c-9.333 0-14.667-10.667-14.667-10.667z"></path>
<path stroke-linejoin="round" stroke-linecap="round" stroke-miterlimit="4" stroke-width="3.2" d="M16 20c2.209 0 4-1.791 4-4s-1.791-4-4-4c-2.209 0-4 1.791-4 4s1.791 4 4 4z"></path>
</symbol>
<symbol id="icon-heart-2" viewBox="0 0 38 32">
<path stroke-linejoin="round" stroke-linecap="round" stroke-miterlimit="4" stroke-width="2.9091" d="M32.839 4.355c-0.805-0.805-1.76-1.444-2.812-1.88s-2.179-0.66-3.318-0.66-2.266 0.224-3.318 0.66c-1.052 0.436-2.007 1.075-2.812 1.88l-1.67 1.67-1.67-1.67c-1.626-1.626-3.831-2.539-6.13-2.539s-4.504 0.913-6.13 2.539c-1.626 1.626-2.539 3.831-2.539 6.13s0.913 4.504 2.539 6.13l13.93 13.93 13.93-13.93c0.805-0.805 1.444-1.76 1.88-2.812s0.66-2.179 0.66-3.318-0.224-2.266-0.66-3.318c-0.436-1.052-1.075-2.007-1.88-2.812z"></path>
</symbol>
<symbol id="icon-heart-1" viewBox="0 0 38 32">
<path stroke-linejoin="round" stroke-linecap="round" stroke-miterlimit="4" stroke-width="2.9091" d="M32.839 4.355c-0.805-0.805-1.76-1.444-2.812-1.88s-2.179-0.66-3.318-0.66-2.266 0.224-3.318 0.66c-1.052 0.436-2.007 1.075-2.812 1.88l-1.67 1.67-1.67-1.67c-1.626-1.626-3.831-2.539-6.13-2.539s-4.504 0.913-6.13 2.539c-1.626 1.626-2.539 3.831-2.539 6.13s0.913 4.504 2.539 6.13l13.93 13.93 13.93-13.93c0.805-0.805 1.444-1.76 1.88-2.812s0.66-2.179 0.66-3.318-0.224-2.266-0.66-3.318c-0.436-1.052-1.075-2.007-1.88-2.812z"></path>
</symbol>
<symbol id="icon-star" viewBox="0 0 34 32">
<path fill="#ffc531" style="fill: var(--color1, #ffc531); stroke: var(--color1, #ffc531)" stroke="#ffc531" stroke-linejoin="miter" stroke-linecap="butt" stroke-miterlimit="4" stroke-width="2.56" d="M13.227 10.020l3.84-7.277 3.84 7.277c0.34 0.644 0.959 1.093 1.675 1.217l8.108 1.403-5.735 5.9c-0.507 0.522-0.744 1.249-0.64 1.97l1.171 8.144-7.384-3.631c-0.653-0.321-1.418-0.321-2.071 0l-7.384 3.631 1.171-8.144c0.104-0.72-0.133-1.448-0.64-1.97l-5.735-5.9 8.108-1.403c0.717-0.124 1.336-0.574 1.675-1.217z"></path>
</symbol>
</defs>
</svg>
